<mxfile host="app.diagrams.net" modified="2023-09-24T15:29:57.246Z" agent="Mozilla/5.0 (Windows NT 10.0; Win64; x64) AppleWebKit/537.36 (KHTML, like Gecko) Chrome/117.0.0.0 Safari/537.36" version="21.8.1" etag="FSaV99Ov_xOrY9fU9x_W" type="github">
  <diagram name="Page-1" id="hykZKOyj251O9yP2ZKYI">
    <mxGraphModel>
      <root>
        <mxCell id="0" />
        <mxCell id="1" parent="0" />
      </root>
    </mxGraphModel>
  </diagram>
</mxfile>
